<svg width="24" height="24" viewBox="0 0 24 24" fill="none" xmlns="http://www.w3.org/2000/svg">
<g clip-path="url(#clip0_39_780)">
<path d="M19 0H3C2.20435 0 1.44129 0.31607 0.87868 0.87868C0.31607 1.44129 0 2.20435 0 3L0 24H24V5L19 0ZM7 2H17V6H7V2ZM22 22H2V3C2 2.73478 2.10536 2.48043 2.29289 2.29289C2.48043 2.10536 2.73478 2 3 2H5V8H19V2.828L22 5.828V22Z" fill="white"/>
<path d="M12.0001 9.99976C11.209 9.99976 10.4356 10.2344 9.77784 10.6739C9.12005 11.1134 8.60736 11.7381 8.30461 12.469C8.00186 13.1999 7.92264 14.0042 8.07698 14.7801C8.23132 15.556 8.61229 16.2688 9.1717 16.8282C9.73111 17.3876 10.4438 17.7686 11.2198 17.9229C11.9957 18.0772 12.8 17.998 13.5309 17.6953C14.2618 17.3925 14.8865 16.8798 15.326 16.222C15.7655 15.5642 16.0001 14.7909 16.0001 13.9998C16.0001 12.9389 15.5787 11.9215 14.8286 11.1713C14.0784 10.4212 13.061 9.99976 12.0001 9.99976V9.99976ZM12.0001 15.9998C11.6046 15.9998 11.2179 15.8825 10.889 15.6627C10.5601 15.4429 10.3037 15.1306 10.1524 14.7651C10.001 14.3997 9.96138 13.9975 10.0386 13.6096C10.1157 13.2216 10.3062 12.8652 10.5859 12.5855C10.8656 12.3058 11.222 12.1154 11.6099 12.0382C11.9979 11.961 12.4 12.0006 12.7655 12.152C13.1309 12.3034 13.4433 12.5597 13.6631 12.8886C13.8828 13.2175 14.0001 13.6042 14.0001 13.9998C14.0001 14.5302 13.7894 15.0389 13.4143 15.414C13.0393 15.789 12.5306 15.9998 12.0001 15.9998Z" fill="white"/>
</g>
<defs>
<clipPath id="clip0_39_780">
<rect width="24" height="24" fill="white"/>
</clipPath>
</defs>
</svg>
